#tb 0: 1/15
0,          0,          0,        1,   460800, 0xb06f7841
0,          1,          1,        1,   460800, 0x7ed06412
0,          2,          2,        1,   460800, 0xe82b5c3d
0,          3,          3,        1,   460800, 0x67284940
0,          4,          4,        1,   460800, 0x17e2c544
0,          5,          5,        1,   460800, 0x5dc65d36
0,          6,          6,        1,   460800, 0x7de63f90
0,          7,          7,        1,   460800, 0x15c8cf7d
0,          8,          8,        1,   460800, 0xbffe4047
0,          9,          9,        1,   460800, 0xcabcc150
0,         10,         10,        1,   460800, 0xe8a17ebe
0,         11,         11,        1,   460800, 0x27e94c03
0,         12,         12,        1,   460800, 0x71c0f48e
0,         13,         13,        1,   460800, 0x5fc8f783
0,         14,         14,        1,   460800, 0xd23d336a
0,         15,         15,        1,   460800, 0xadcfa9e0
0,         16,         16,        1,   460800, 0x24222144
0,         17,         17,        1,   460800, 0x88f28b2b
0,         18,         18,        1,   460800, 0x52e13544
0,         19,         19,        1,   460800, 0x7e724731
